name Walk5.mot
datacolumns 19
datarows 12
range 2.23400000 2.24500000
endheader

                time	   L_ground_force_vx	   L_ground_force_vy	   L_ground_force_vz	   L_ground_force_px	   L_ground_force_py	   L_ground_force_pz	   R_ground_force_vx	   R_ground_force_vy	   R_ground_force_vz	   R_ground_force_px	   R_ground_force_py	   R_ground_force_pz	   L_ground_torque_x	   L_ground_torque_y	   L_ground_torque_z	   R_ground_torque_x	   R_ground_torque_y	   R_ground_torque_z	
          2.23400000	         22.09257308	        649.37324082	         29.10348579	         -0.36196165	          0.00000000	         -0.02179212	          0.00732561	          0.10790252	          0.01267824	          0.00006107	          0.00000000	          0.00004836	          0.00000000	          0.56069973	          0.00000000	          0.00000000	         -0.00274430	          0.00000000	
          2.23500000	         22.40588621	        650.02454807	         29.18487416	         -0.36164611	          0.00000000	         -0.02185185	          0.00725177	          0.11622400	          0.01350778	          0.00006491	          0.00000000	          0.00005128	          0.00000000	          0.55926523	          0.00000000	          0.00000000	         -0.00285804	          0.00000000	
          2.23600000	         22.72053446	        650.68240287	         29.26702901	         -0.36132910	          0.00000000	         -0.02191180	          0.00714112	          0.12483875	          0.01435862	          0.00006885	          0.00000000	          0.00005426	          0.00000000	          0.55785090	          0.00000000	          0.00000000	         -0.00297055	          0.00000000	
          2.23700000	         23.03657730	        651.34664268	         29.34987884	         -0.36101061	          0.00000000	         -0.02197199	          0.00699069	          0.13373846	          0.01522922	          0.00007286	          0.00000000	          0.00005729	          0.00000000	          0.55645842	          0.00000000	          0.00000000	         -0.00308125	          0.00000000	
          2.23800000	         23.35406995	        652.01712125	         29.43335308	         -0.36069060	          0.00000000	         -0.02203244	          0.00679742	          0.14291285	          0.01611784	          0.00007695	          0.00000000	          0.00006037	          0.00000000	          0.55508976	          0.00000000	          0.00000000	         -0.00318950	          0.00000000	
          2.23900000	         23.67306319	        652.69370992	         29.51738250	         -0.36036906	          0.00000000	         -0.02209317	          0.00655811	          0.15234954	          0.01702246	          0.00008110	          0.00000000	          0.00006348	          0.00000000	          0.55374725	          0.00000000	          0.00000000	         -0.00329465	          0.00000000	
          2.24000000	         23.99360323	        653.37629868	         29.60189980	         -0.36004596	          0.00000000	         -0.02215420	          0.00626948	          0.16203396	          0.01794084	          0.00008530	          0.00000000	          0.00006662	          0.00000000	          0.55243346	          0.00000000	          0.00000000	         -0.00339595	          0.00000000	
          2.24100000	         24.31573198	        654.06479634	         29.68684015	         -0.35972129	          0.00000000	         -0.02221555	          0.00592813	          0.17194911	          0.01887046	          0.00008953	          0.00000000	          0.00006978	          0.00000000	          0.55115100	          0.00000000	          0.00000000	         -0.00349265	          0.00000000	
          2.24200000	         24.63948738	        654.75912942	         29.77214158	         -0.35939503	          0.00000000	         -0.02227723	          0.00553058	          0.18207550	          0.01980855	          0.00009379	          0.00000000	          0.00007294	          0.00000000	          0.54990226	          0.00000000	          0.00000000	         -0.00358391	          0.00000000	
          2.24300000	         24.96490386	        655.45924008	         29.85774505	         -0.35906716	          0.00000000	         -0.02233925	          0.00507325	          0.19239092	          0.02075199	          0.00009806	          0.00000000	          0.00007610	          0.00000000	          0.54868927	          0.00000000	          0.00000000	         -0.00366884	          0.00000000	
          2.24400000	         25.29201269	        656.16508328	         29.94359433	         -0.35873768	          0.00000000	         -0.02240162	          0.00455247	          0.20287035	          0.02169740	          0.00010232	          0.00000000	          0.00007923	          0.00000000	          0.54751378	          0.00000000	          0.00000000	         -0.00374652	          0.00000000	
          2.24500000	         25.62084210	        656.87662408	         30.02963591	         -0.35840655	          0.00000000	         -0.02246435	          0.00396450	          0.21348574	          0.02264105	          0.00010656	          0.00000000	          0.00008233	          0.00000000	          0.54637738	          0.00000000	          0.00000000	         -0.00381594	          0.00000000	
